# xmcd
#
# Track frame offsets: 
#        150
#        16724
#        32232
#        49714
#        68731
#        85944
#        107485
#        124961
#        143373
#        167975
#        183466
#        212061
#        227485
#        246902
#
# Disc length: 3518 seconds
#
# Revision: 0
# Processed by: cddbd v1.5.2PL0 Copyright (c) Steve Scherf et al.
# Submitted via: ExactAudioCopy v0.95b4
#
DISCID=b60dbc0e
DTITLE=the Golden Gate Quartet - incredible
DYEAR=2010
DGENRE=Gospel
TTITLE0=I Want To Be Ready
TTITLE1=Yes Jesus Loves Me
TTITLE2=Religion
TTITLE3=Standing
TTITLE4=Music Up There
TTITLE5=My Pay
TTITLE6=Would You Believe
TTITLE7=Crossing Deep River
TTITLE8=On The Other Side
TTITLE9=Jesus Christ Is His Name
TTITLE10=Oh Happy Day
TTITLE11=Heaven And Rest
TTITLE12=Christmas Bells
TTITLE13=Cry Sometime
EXTD=
EXTT0=
EXTT1=
EXTT2=
EXTT3=
EXTT4=
EXTT5=
EXTT6=
EXTT7=
EXTT8=
EXTT9=
EXTT10=
EXTT11=
EXTT12=
EXTT13=
PLAYORDER=
